<svg width="14" height="15" viewBox="0 0 14 15" fill="none" xmlns="http://www.w3.org/2000/svg">
<path d="M8.56669 7.21562L3.724 6.3625V12.6664C3.72406 12.7349 3.7376 12.8027 3.76386 12.866C3.79012 12.9292 3.82859 12.9867 3.87705 13.0351C3.92552 13.0835 3.98304 13.1218 4.04633 13.148C4.10963 13.1741 4.17745 13.1876 4.24594 13.1875H12.6022C12.6707 13.1877 12.7387 13.1743 12.8021 13.1482C12.8655 13.1221 12.9231 13.0838 12.9716 13.0354C13.0202 12.987 13.0587 12.9295 13.0851 12.8662C13.1114 12.8029 13.1249 12.735 13.125 12.6664V10.3437L8.56669 7.21562Z" fill="#185C37"/>
<path d="M8.56669 1.8125H4.24594C4.17745 1.81244 4.10963 1.82587 4.04633 1.85203C3.98304 1.87818 3.92552 1.91655 3.87705 1.96493C3.82859 2.01332 3.79012 2.07078 3.76386 2.13403C3.7376 2.19728 3.72406 2.26508 3.724 2.33356V4.65625L8.56669 7.5L11.1309 8.35313L13.125 7.5V4.65625L8.56669 1.8125Z" fill="#21A366"/>
<path d="M3.724 4.65625H8.56669V7.5H3.724V4.65625Z" fill="#107C41"/>
<path opacity="0.1" d="M7.18987 4.0875H3.724V11.1969H7.18987C7.32798 11.1962 7.46025 11.1411 7.55803 11.0436C7.65581 10.946 7.71122 10.8139 7.71225 10.6758V4.60856C7.71122 4.47046 7.65581 4.33833 7.55803 4.2408C7.46025 4.14326 7.32798 4.08819 7.18987 4.0875Z" fill="black"/>
<path opacity="0.2" d="M6.90506 4.37188H3.724V11.4813H6.90506C7.04317 11.4806 7.17544 11.4255 7.27322 11.328C7.37099 11.2304 7.4264 11.0983 7.42744 10.9602V4.89294C7.4264 4.75484 7.37099 4.6227 7.27322 4.52517C7.17544 4.42764 7.04317 4.37256 6.90506 4.37188Z" fill="black"/>
<path opacity="0.2" d="M6.90506 4.37188H3.724V10.9125H6.90506C7.04317 10.9118 7.17544 10.8567 7.27322 10.7592C7.37099 10.6617 7.4264 10.5295 7.42744 10.3914V4.89294C7.4264 4.75484 7.37099 4.6227 7.27322 4.52517C7.17544 4.42764 7.04317 4.37256 6.90506 4.37188Z" fill="black"/>
<path opacity="0.2" d="M6.62025 4.37188H3.724V10.9125H6.62025C6.75835 10.9118 6.89062 10.8567 6.9884 10.7592C7.08618 10.6617 7.14159 10.5295 7.14262 10.3914V4.89294C7.14159 4.75484 7.08618 4.6227 6.9884 4.52517C6.89062 4.42764 6.75835 4.37256 6.62025 4.37188Z" fill="black"/>
<path d="M1.39737 4.37187H6.62025C6.7586 4.37176 6.89134 4.42658 6.98929 4.52428C7.08724 4.62199 7.14239 4.75459 7.14262 4.89294V10.1071C7.14239 10.2454 7.08724 10.378 6.98929 10.4757C6.89134 10.5734 6.7586 10.6282 6.62025 10.6281H1.39737C1.32885 10.6282 1.26098 10.6149 1.19764 10.5887C1.13429 10.5626 1.07672 10.5242 1.02821 10.4758C0.979695 10.4275 0.941194 10.37 0.914906 10.3067C0.888618 10.2434 0.875057 10.1756 0.875 10.1071V4.89294C0.875057 4.82442 0.888618 4.75658 0.914906 4.6933C0.941194 4.63002 0.979695 4.57254 1.02821 4.52415C1.07672 4.47576 1.13429 4.43741 1.19764 4.41128C1.26098 4.38515 1.32885 4.37176 1.39737 4.37187Z" fill="url(#paint0_linear_319_63)"/>
<path d="M2.49377 9.19444L3.59234 7.49519L2.58609 5.80556H3.39415L3.94321 6.8875C3.99396 6.98988 4.03071 7.066 4.04734 7.11675H4.05477C4.09065 7.0345 4.12871 6.95531 4.16852 6.87788L4.75565 5.80731H5.4994L4.46734 7.48731L5.52565 9.19575H4.73421L4.09984 8.00969C4.07038 7.9587 4.04535 7.90527 4.02502 7.85H4.01452C3.99603 7.90385 3.97136 7.95538 3.94102 8.00356L3.28784 9.19444H2.49377Z" fill="white"/>
<path d="M12.6026 1.8125H8.56665V4.65625H13.125V2.33356C13.1249 2.26504 13.1113 2.1972 13.0851 2.13393C13.0588 2.07065 13.0203 2.01317 12.9718 1.96478C12.9232 1.91639 12.8657 1.87803 12.8023 1.8519C12.739 1.82578 12.6711 1.81239 12.6026 1.8125Z" fill="#33C481"/>
<path d="M8.56665 7.5H13.125V10.3438H8.56665V7.5Z" fill="#107C41"/>
<defs>
<linearGradient id="paint0_linear_319_63" x1="1.96612" y1="3.96237" x2="6.0515" y2="11.0376" gradientUnits="userSpaceOnUse">
<stop stop-color="#18884F"/>
<stop offset="0.5" stop-color="#117E43"/>
<stop offset="1" stop-color="#0B6631"/>
</linearGradient>
</defs>
</svg>
